<svg viewBox="0 0 24 24" fill="none" xmlns="http://www.w3.org/2000/svg">
    <path fill-rule="evenodd" clip-rule="evenodd" d="M11.963 22C11.6517 22.0006 11.3542 21.8717 11.1419 21.6441C10.4111 20.8574 4 13.8404 4 9.81815C4 5.50741 7.57222 2 11.963 2C16.3537 2 19.9259 5.50741 19.9259 9.81852C19.9259 13.8404 13.5148 20.8574 12.7841 21.6441C12.5717 21.8717 12.2742 22.0006 11.963 22ZM15 10C15 11.6533 13.6533 13 12 13C10.3467 13 9 11.6533 9 10C9 8.34667 10.3467 7 12 7C13.6533 7 15 8.34667 15 10Z" fill="#5F6CF5"/>
</svg>
