<svg viewBox="0 0 24 24" fill="none" xmlns="http://www.w3.org/2000/svg">
    <path d="M11.1401 3.66486C11.5172 2.97343 12.5085 2.96913 12.8917 3.65727L21.7198 19.5136C22.0909 20.1801 21.609 21 20.8461 21H3.36907C2.61001 21 2.1277 20.1875 2.49118 19.5211L11.1401 3.66486Z" fill="#5E77FF" stroke="#5E77FF" stroke-width="2"/>
    <path d="M10.2828 9.9799C10.1336 8.93492 10.9444 8 12 8C13.0556 8 13.8664 8.93492 13.7172 9.9799L13.1414 14.0101C13.0603 14.5781 12.5738 15 12 15C11.4262 15 10.9397 14.5781 10.8586 14.0101L10.2828 9.9799Z" fill="white"/>
    <rect x="11" y="17" width="2" height="2" rx="1" fill="white"/>
</svg>
