<svg viewBox="0 0 24 24" fill="none" xmlns="http://www.w3.org/2000/svg">
    <path fill-rule="evenodd" clip-rule="evenodd" d="M21 3C21.5523 3 22 3.44772 22 4V20C22 20.5523 21.5523 21 21 21H9H8H3C2.44772 21 2 20.5523 2 20V10C2 9.44772 2.44772 9 3 9H8V4C8 3.44772 8.44771 3 9 3H21ZM10 5H20V19H10V5ZM4 11H8V19H4V11ZM17 9C17 8.44772 16.5523 8 16 8H14C13.4477 8 13 8.44772 13 9C13 9.55228 13.4477 10 14 10H16C16.5523 10 17 9.55228 17 9ZM16 12C16.5523 12 17 12.4477 17 13C17 13.5523 16.5523 14 16 14H14C13.4477 14 13 13.5523 13 13C13 12.4477 13.4477 12 14 12H16Z" fill="#B1B3BD"/>
</svg>
