<svg viewBox="0 0 24 24" fill="none" xmlns="http://www.w3.org/2000/svg">
    <path fill-rule="evenodd" clip-rule="evenodd" d="M17.5 5C18.16 5 18.72 5.42 18.92 6.01L21 12V20C21 20.55 20.55 21 20 21H19C18.45 21 18 20.55 18 20V19H6V20C6 20.55 5.55 21 5 21H4C3.45 21 3 20.55 3 20V12L5.08 6.01C5.29 5.42 5.84 5 6.5 5H17.5ZM17.14 7H6.85L5.77 10.11H18.22L17.14 7ZM7.5 16C8.32843 16 9 15.3284 9 14.5C9 13.6716 8.32843 13 7.5 13C6.67157 13 6 13.6716 6 14.5C6 15.3284 6.67157 16 7.5 16ZM18 14.5C18 15.3284 17.3284 16 16.5 16C15.6716 16 15 15.3284 15 14.5C15 13.6716 15.6716 13 16.5 13C17.3284 13 18 13.6716 18 14.5Z" fill="#5E77FF"/>
</svg>
