<svg viewBox="0 0 50 52" fill="none" xmlns="http://www.w3.org/2000/svg">
    <defs>
        <filter id="filter0_f" x="0" y="26" width="50" height="26" color-interpolation-filters="sRGB">
            <feFlood flood-opacity="0" result="BackgroundImageFix"/>
            <feBlend in="SourceGraphic" in2="BackgroundImageFix" result="shape"/>
            <feGaussianBlur stdDeviation="3" result="effect1_foregroundBlur"/>
        </filter>
        <filter id="filter1_f" x="9" y="29" width="32" height="20" color-interpolation-filters="sRGB">
            <feFlood flood-opacity="0" result="BackgroundImageFix"/>
            <feBlend in="SourceGraphic" in2="BackgroundImageFix" result="shape"/>
            <feGaussianBlur stdDeviation="2" result="effect1_foregroundBlur"/>
        </filter>
        <linearGradient id="paint0_linear" x1="25" y1="46" x2="25" y2="30.0909" gradientUnits="userSpaceOnUse">
            <stop stop-color="#333333"/>
            <stop offset="1" stop-color="#333333" stop-opacity="0"/>
        </linearGradient>
        <linearGradient id="paint1_linear" x1="25" y1="45" x2="25" y2="31.3636" gradientUnits="userSpaceOnUse">
            <stop stop-color="#333333"/>
            <stop offset="1" stop-color="#333333" stop-opacity="0"/>
        </linearGradient>
    </defs>
    <g opacity="0.2" filter="url(#filter0_f)">
        <path fill-rule="evenodd" clip-rule="evenodd" d="M25 46C12.3333 42.4572 6 39.5683 6 37.3333C6 34.3878 14.5066 32 25 32C35.4934 32 44 34.3878 44 37.3333C44 39.5192 37.6667 42.4081 25 46Z" fill="url(#paint0_linear)"/>
    </g>
    <g opacity="0.4" filter="url(#filter1_f)">
        <path fill-rule="evenodd" clip-rule="evenodd" d="M25 45C17 41.9633 13 39.4871 13 37.5714C13 35.0467 18.3726 33 25 33C31.6274 33 37 35.0467 37 37.5714C37 39.4451 33 41.9212 25 45Z" fill="url(#paint1_linear)"/>
    </g>
    <path fill-rule="evenodd" clip-rule="evenodd" d="M25 46C26.125 46 43 29 43 17.3176C43 7.75338 34.9411 0 25 0C15.0589 0 7 7.75338 7 17.3176C7 29 23.875 46 25 46Z" fill="#5E77FF"/>
    <path fill-rule="evenodd" clip-rule="evenodd" d="M31.5 9C32.16 9 32.72 9.42 32.92 10.01L35 16V25C35 25.55 34.55 26 34 26H33C32.45 26 32 25.55 32 25V24H18V25C18 25.55 17.55 26 17 26H16C15.45 26 15 25.55 15 25V16L17.08 10.01C17.29 9.42 17.84 9 18.5 9H31.5ZM30.9536 11H19.0464L18 14H32L30.9536 11Z" fill="white"/>
    <rect width="4" height="2" rx="1" transform="matrix(-1 0 0 1 22 18)" fill="#5E77FF"/>
    <rect width="4" height="2" rx="1" transform="matrix(-1 0 0 1 32 18)" fill="#5E77FF"/>
</svg>
