<svg viewBox="0 0 24 24" fill="none" xmlns="http://www.w3.org/2000/svg">
    <path d="M20.9622 16.9467C20.9113 16.7933 20.5874 16.5673 19.9907 16.2693C19.8291 16.1754 19.5988 16.0477 19.3007 15.8857C19.0024 15.7238 18.7317 15.5745 18.4889 15.4382C18.2457 15.3018 18.0178 15.1697 17.8049 15.0421C17.7709 15.0165 17.6644 14.942 17.4854 14.8182C17.3063 14.6947 17.1552 14.603 17.0314 14.5433C16.9078 14.4838 16.7863 14.4539 16.667 14.4539C16.4966 14.4539 16.2837 14.5754 16.0281 14.8182C15.7725 15.0612 15.5381 15.3252 15.3251 15.611C15.1121 15.8966 14.8862 16.1606 14.6478 16.4035C14.4091 16.6465 14.2129 16.7679 14.0597 16.7679C13.9828 16.7679 13.8869 16.7465 13.7719 16.7042C13.657 16.6616 13.5696 16.6251 13.5096 16.5957C13.4502 16.5656 13.3481 16.5062 13.2031 16.4164C13.0579 16.3269 12.9771 16.2778 12.9601 16.2693C11.7925 15.6214 10.7912 14.8799 9.9559 14.045C9.12087 13.2095 8.37928 12.2083 7.73159 11.0406C7.72308 11.0236 7.67396 10.9426 7.58455 10.7978C7.49499 10.6528 7.43531 10.5507 7.40549 10.4909C7.37566 10.4313 7.33944 10.3439 7.2969 10.2288C7.25437 10.1138 7.23301 10.018 7.23301 9.94118C7.23301 9.78787 7.35449 9.59175 7.5974 9.35309C7.84026 9.11457 8.10453 8.88863 8.38994 8.67572C8.67557 8.4628 8.93957 8.22835 9.18253 7.97277C9.42539 7.71705 9.54683 7.5041 9.54683 7.33368C9.54683 7.21444 9.517 7.09287 9.45741 6.96933C9.39776 6.84553 9.30615 6.69445 9.18253 6.51539C9.05885 6.33642 8.9843 6.22999 8.95869 6.19573C8.83099 5.98282 8.69903 5.75486 8.56251 5.51195C8.42598 5.26909 8.27697 4.99837 8.11497 4.70011C7.9531 4.40199 7.82535 4.1718 7.7315 4.00989C7.43338 3.41342 7.20757 3.08942 7.05413 3.03846C6.99444 3.0129 6.90489 3 6.78569 3C6.55545 3 6.25509 3.04254 5.88439 3.12788C5.51355 3.21309 5.22174 3.30246 5.00865 3.39636C4.58252 3.57524 4.13086 4.0951 3.65354 4.95574C3.2189 5.7567 3.0016 6.54947 3.0016 7.33345C3.0016 7.56338 3.01651 7.78708 3.04633 8.00461C3.07615 8.22191 3.12943 8.46697 3.20623 8.73975C3.28288 9.01243 3.34472 9.215 3.39147 9.34691C3.43826 9.47891 3.52562 9.71538 3.6535 10.0564C3.7812 10.3973 3.85799 10.606 3.88356 10.6827C4.18181 11.518 4.5355 12.2636 4.94453 12.9199C5.61752 14.0108 6.53593 15.1381 7.69922 16.3015C8.86255 17.4648 9.98966 18.3831 11.0806 19.0564C11.7368 19.4654 12.4827 19.819 13.3178 20.1175C13.3946 20.1429 13.6033 20.2195 13.9441 20.3477C14.285 20.4755 14.5216 20.5629 14.6536 20.6097C14.7856 20.6567 14.9882 20.7185 15.2607 20.7953C15.5337 20.8721 15.7786 20.9254 15.9959 20.9554C16.2133 20.9849 16.4371 21 16.667 21C17.451 21 18.2438 20.7826 19.0449 20.348C19.9054 19.8709 20.4251 19.4191 20.6041 18.9927C20.6982 18.7798 20.7874 18.4879 20.8726 18.1171C20.9581 17.7464 21.0005 17.4461 21.0005 17.2159C21.0008 17.0962 20.9879 17.0069 20.9622 16.9467Z" fill="#5E77FF"/>
</svg>
