<svg viewBox="0 0 48 48" fill="none" xmlns="http://www.w3.org/2000/svg">
    <rect width="48" height="48" rx="24" fill="#5E77FF"/>
    <rect x="23" y="29" width="2" height="2" rx="1" fill="white"/>
    <path d="M24 17C22.1317 17 20.5636 18.2793 20.1233 20.0101C19.9872 20.5453 20.4477 21 21 21C21.5523 21 21.9799 20.5254 22.2462 20.0416C22.5871 19.4221 23.2466 19 24 19C25.1 19 26 19.9 26 21C26 22.7782 23.6285 23.5683 23.1025 26.0059C22.986 26.5457 23.4477 27 24 27C24.5523 27 24.9899 26.5385 25.1912 26.0242C25.8522 24.3357 28 23.1153 28 21C28 18.79 26.21 17 24 17Z" fill="white"/>
</svg>
