<svg viewBox="0 0 48 48" fill="none" xmlns="http://www.w3.org/2000/svg">
    <path fill-rule="evenodd" clip-rule="evenodd" d="M24 48C37.2548 48 48 37.2548 48 24C48 10.7452 37.2548 0 24 0C10.7452 0 0 10.7452 0 24C0 37.2548 10.7452 48 24 48Z" fill="#5E77FF"/>
    <mask id="path-2-inside-1" fill="white">
        <path fill-rule="evenodd" clip-rule="evenodd" d="M28.9497 19.0502C28.5591 18.6597 27.926 18.6597 27.5354 19.0502L23.9999 22.5857L20.4644 19.0502C20.0739 18.6597 19.4407 18.6597 19.0502 19.0502C18.6596 19.4407 18.6596 20.0739 19.0502 20.4644L22.5857 24L19.0502 27.5355C18.6596 27.926 18.6596 28.5592 19.0502 28.9497C19.4407 29.3402 20.0739 29.3402 20.4644 28.9497L23.9999 25.4142L27.5354 28.9497C27.926 29.3402 28.5591 29.3402 28.9497 28.9497C29.3402 28.5592 29.3402 27.926 28.9497 27.5355L25.4141 24L28.9497 20.4644C29.3402 20.0739 29.3402 19.4407 28.9497 19.0502Z"/>
    </mask>
    <path fill-rule="evenodd" clip-rule="evenodd" d="M28.9497 19.0502C28.5591 18.6597 27.926 18.6597 27.5354 19.0502L23.9999 22.5857L20.4644 19.0502C20.0739 18.6597 19.4407 18.6597 19.0502 19.0502C18.6596 19.4407 18.6596 20.0739 19.0502 20.4644L22.5857 24L19.0502 27.5355C18.6596 27.926 18.6596 28.5592 19.0502 28.9497C19.4407 29.3402 20.0739 29.3402 20.4644 28.9497L23.9999 25.4142L27.5354 28.9497C27.926 29.3402 28.5591 29.3402 28.9497 28.9497C29.3402 28.5592 29.3402 27.926 28.9497 27.5355L25.4141 24L28.9497 20.4644C29.3402 20.0739 29.3402 19.4407 28.9497 19.0502Z" fill="#D8D8D8"/>
    <path d="M23.9999 22.5857L23.2928 23.2929L23.9999 24L24.707 23.2929L23.9999 22.5857ZM22.5857 24L23.2928 24.7071L23.9999 24L23.2928 23.2929L22.5857 24ZM23.9999 25.4142L24.707 24.7071L23.9999 24L23.2928 24.7071L23.9999 25.4142ZM25.4141 24L24.707 23.2929L23.9999 24L24.707 24.7071L25.4141 24ZM28.2425 19.7573L28.2425 19.7573L29.6568 18.3431C28.8757 17.5621 27.6094 17.5621 26.8283 18.3431L28.2425 19.7573ZM24.707 23.2929L28.2425 19.7573L26.8283 18.3431L23.2928 21.8786L24.707 23.2929ZM19.7573 19.7573L23.2928 23.2929L24.707 21.8786L21.1715 18.3431L19.7573 19.7573ZM19.7573 19.7573L19.7573 19.7573L21.1715 18.3431C20.3904 17.5621 19.1241 17.5621 18.3431 18.3431L19.7573 19.7573ZM19.7573 19.7573L19.7573 19.7573L18.3431 18.3431C17.562 19.1242 17.562 20.3905 18.3431 21.1715L19.7573 19.7573ZM23.2928 23.2929L19.7573 19.7573L18.3431 21.1715L21.8786 24.7071L23.2928 23.2929ZM19.7573 28.2426L23.2928 24.7071L21.8786 23.2929L18.3431 26.8284L19.7573 28.2426ZM19.7573 28.2426L18.3431 26.8284C17.562 27.6094 17.562 28.8758 18.3431 29.6568L19.7573 28.2426ZM19.7573 28.2426L18.3431 29.6568C19.1241 30.4379 20.3904 30.4379 21.1715 29.6568L19.7573 28.2426ZM23.2928 24.7071L19.7573 28.2426L21.1715 29.6568L24.707 26.1213L23.2928 24.7071ZM28.2425 28.2426L24.707 24.7071L23.2928 26.1213L26.8283 29.6568L28.2425 28.2426ZM28.2425 28.2426L28.2425 28.2426L26.8283 29.6568C27.6094 30.4379 28.8757 30.4379 29.6568 29.6568L28.2425 28.2426ZM28.2425 28.2426L29.6568 29.6568C30.4378 28.8758 30.4378 27.6094 29.6568 26.8284L28.2425 28.2426ZM24.707 24.7071L28.2425 28.2426L29.6568 26.8284L26.1212 23.2929L24.707 24.7071ZM28.2425 19.7573L24.707 23.2929L26.1212 24.7071L29.6568 21.1715L28.2425 19.7573ZM28.2425 19.7573L29.6568 21.1715C30.4378 20.3905 30.4378 19.1242 29.6568 18.3431L28.2425 19.7573Z" fill="white" mask="url(#path-2-inside-1)"/>
</svg>
