<svg viewBox="0 0 48 48" fill="none" xmlns="http://www.w3.org/2000/svg">
    <path fill-rule="evenodd" clip-rule="evenodd" d="M24 48C37.2548 48 48 37.2548 48 24C48 10.7452 37.2548 0 24 0C10.7452 0 0 10.7452 0 24C0 37.2548 10.7452 48 24 48Z" fill="#5E77FF"/>
    <path d="M22.7071 28.7129C22.3166 29.1034 21.6834 29.1034 21.2929 28.7129L17.7055 25.1255C17.3159 24.7359 17.3159 24.1041 17.7055 23.7145C18.0947 23.3253 18.7257 23.3248 19.1155 23.7135L22 26.59L28.8804 19.7096C29.2719 19.3181 29.9074 19.3196 30.2975 19.7125C30.6857 20.1034 30.6849 20.7351 30.2954 21.1246L22.7071 28.7129Z" fill="white"/>
</svg>
