<svg viewBox="0 0 48 48" fill="none" xmlns="http://www.w3.org/2000/svg">
    <path fill-rule="evenodd" clip-rule="evenodd" d="M24 48C37.2548 48 48 37.2548 48 24C48 10.7452 37.2548 0 24 0C10.7452 0 0 10.7452 0 24C0 37.2548 10.7452 48 24 48Z" fill="#5E77FF"/>
    <path d="M23.5 16C23.5 15.7239 23.7239 15.5 24 15.5C24.2761 15.5 24.5 15.7239 24.5 16V24C24.5 24.2761 24.2761 24.5 24 24.5C23.7239 24.5 23.5 24.2761 23.5 24V16Z" fill="#D8D8D8" stroke="white"/>
    <rect x="23.3232" y="24.3413" width="1" height="5.76865" rx="0.5" transform="rotate(-60 23.3232 24.3413)" fill="#D8D8D8" stroke="white"/>
</svg>
