<svg viewBox="0 0 24 24" fill="none" xmlns="http://www.w3.org/2000/svg">
    <rect x="3" y="3" width="18" height="18" rx="9" stroke="white" stroke-width="2"/>
    <path d="M14.7051 13.2909C15.0956 13.6815 15.0956 14.3146 14.7051 14.7052C14.3145 15.0957 13.6814 15.0957 13.2909 14.7052L9.29881 10.7131C8.90829 10.3226 8.90829 9.68943 9.29881 9.2989C9.68934 8.90838 10.3225 8.90838 10.713 9.2989L14.7051 13.2909Z" fill="white"/>
    <path d="M10.7033 14.7108C10.3128 15.1014 9.6796 15.1014 9.28908 14.7108C8.89855 14.3203 8.89855 13.6871 9.28908 13.2966L13.2987 9.28703C13.6892 8.89651 14.3224 8.89651 14.7129 9.28703C15.1034 9.67756 15.1034 10.3107 14.7129 10.7012L10.7033 14.7108Z" fill="white"/>
</svg>
