<svg viewBox="0 0 24 24" fill="none" xmlns="http://www.w3.org/2000/svg">
    <path fill-rule="evenodd" clip-rule="evenodd" d="M2.58495 9.98686C2.3088 9.50857 2.47268 8.89698 2.95097 8.62084L4.68298 7.62086L4.68297 7.62084L4.69207 7.61561L5.54905 7.12084C6.02734 6.84469 6.63893 7.00857 6.91507 7.48686L7.41507 8.35289L7.41503 8.35291L11.9411 16.1922C12.2703 16.068 12.6272 16 13 16C14.003 16 14.8911 16.4922 15.4358 17.2484L19.7322 14.7678C20.2105 14.4917 20.8221 14.6556 21.0982 15.1339C21.3744 15.6122 21.2105 16.2238 20.7322 16.4999L16 19.232L15.9922 19.2185C15.8802 20.7733 14.5834 22 13 22C11.3431 22 9.99999 20.6568 9.99999 19C9.99999 18.4588 10.1433 17.9511 10.394 17.5127L5.68298 9.35291L3.95097 10.3529C3.47268 10.629 2.86109 10.4652 2.58495 9.98686ZM12 19C12 18.4477 12.4477 18 13 18C13.5523 18 14 18.4477 14 19C14 19.5523 13.5523 20 13 20C12.4477 20 12 19.5523 12 19Z" fill="#A5A7B0"/>
    <path fill-rule="evenodd" clip-rule="evenodd" d="M20 6C20 4.34315 18.6569 3 17 3H14H13V4V5V7V9V10C12.4477 10 12 10.4477 12 11C12 11.5523 12.4477 12 13 12L13 13C13 13.5523 13.4477 14 14 14C14.5523 14 15 13.5523 15 13V12H17C17.5523 12 18 11.5523 18 11C18 10.4477 17.5523 10 17 10H15V9H17C18.6569 9 20 7.65685 20 6ZM15 7V5H17C17.5523 5 18 5.44772 18 6C18 6.55228 17.5523 7 17 7H15Z" fill="#A5A7B0"/>
</svg>
