<svg viewBox="0 0 24 24" fill="none" xmlns="http://www.w3.org/2000/svg">
    <path d="M2 15C2 13.3431 3.34315 12 5 12H6V18H5C3.34315 18 2 16.6569 2 15Z" stroke="#5E77FF" stroke-width="2"/>
    <path d="M22 15C22 13.3431 20.6569 12 19 12H18V18H19C20.6569 18 22 16.6569 22 15Z" stroke="#5E77FF" stroke-width="2"/>
    <path d="M19 9C18.4477 9 18.0087 8.54892 17.9177 8.00419C17.4434 5.16441 14.9745 3 12 3C9.02554 3 6.55661 5.16441 6.08226 8.00419C5.99127 8.54893 5.55228 9 5 9C4.44772 9 3.99344 8.55004 4.06165 8.00199C4.55286 4.05471 7.9197 1 12 1C16.0803 1 19.4471 4.05471 19.9384 8.00199C20.0066 8.55004 19.5523 9 19 9Z" fill="#5E77FF"/>
    <path d="M19 9C18.4477 9 18.0087 8.54892 17.9177 8.00419C17.4434 5.16441 14.9745 3 12 3C9.02554 3 6.55661 5.16441 6.08226 8.00419C5.99127 8.54893 5.55228 9 5 9C4.44772 9 3.99344 8.55004 4.06165 8.00199C4.55286 4.05471 7.9197 1 12 1C16.0803 1 19.4471 4.05471 19.9384 8.00199C20.0066 8.55004 19.5523 9 19 9Z" stroke="#5E77FF"/>
    <path d="M18 18V19C18 20.1046 17.1046 21 16 21H13C12.4477 21 12 21.4477 12 22C12 22.5523 12.4477 23 13 23H16C18.2091 23 20 21.2091 20 19V18H18Z" fill="#5E77FF"/>
    <path d="M18 18V19C18 20.1046 17.1046 21 16 21H13C12.4477 21 12 21.4477 12 22C12 22.5523 12.4477 23 13 23H16C18.2091 23 20 21.2091 20 19V18H18Z" stroke="#5E77FF"/>
</svg>
