<svg viewBox="0 0 24 24" fill="none" xmlns="http://www.w3.org/2000/svg">
    <path fill-rule="evenodd" clip-rule="evenodd" d="M21 4C21 3.44772 20.5523 3 20 3L14 3C13.4477 3 13 3.44772 13 4C13 4.55228 13.4477 5 14 5L17.4853 5L10.7071 11.7782C10.3166 12.1687 10.3166 12.8019 10.7071 13.1924C11.0976 13.5829 11.7308 13.5829 12.1213 13.1924L19 6.31372V10C19 10.5523 19.4477 11 20 11C20.5523 11 21 10.5523 21 10V4ZM9.85715 5C10.4094 5 10.8571 5.44772 10.8571 6C10.8571 6.55228 10.4094 7 9.85715 7H6V19H18V15C18 14.4477 18.4477 14 19 14C19.5523 14 20 14.4477 20 15V19C20 20.1046 19.1046 21 18 21H6C4.89543 21 4 20.1046 4 19V7C4 5.89543 4.89543 5 6 5H9.85715Z" fill="#C4C4C4"/>
</svg>
