<svg viewBox="0 0 24 24" fill="none" xmlns="http://www.w3.org/2000/svg">
    <path fill-rule="evenodd" clip-rule="evenodd" d="M22 4C22 3.44772 21.5523 3 21 3H15C14.4477 3 14 3.44771 14 4C14 4.55228 14.4477 5 15 5L18.4854 5L11.7072 11.7782C11.3167 12.1687 11.3167 12.8019 11.7072 13.1924C12.0977 13.5829 12.7309 13.5829 13.1214 13.1924L20 6.31378V10C20 10.5523 20.4477 11 21 11C21.5523 11 22 10.5523 22 10V4ZM9.85715 5C10.4094 5 10.8571 5.44772 10.8571 6C10.8571 6.55229 10.4094 7 9.85715 7H6V19H18V15C18 14.4477 18.4477 14 19 14C19.5523 14 20 14.4477 20 15V19C20 20.1046 19.1046 21 18 21H6C4.89543 21 4 20.1046 4 19V7C4 5.89543 4.89543 5 6 5H9.85715Z" fill="#5E77FF"/>
</svg>
