<svg viewBox="0 0 24 24" fill="none" xmlns="http://www.w3.org/2000/svg">
    <path fill-rule="evenodd" clip-rule="evenodd" d="M21 12C21.5523 12 22 12.4477 22 13V19.2457C22 19.6922 21.704 20.0846 21.2747 20.2072L15.2975 21.915C15.1037 21.9704 14.8977 21.9659 14.7065 21.9022L9.29349 20.0978C9.1023 20.0341 8.89632 20.0296 8.70254 20.085L3.27472 21.6358C2.63591 21.8183 2 21.3386 2 20.6743V7.7543C2 7.30782 2.29598 6.91543 2.72528 6.79277L8.70254 5.08498C8.89632 5.02962 9.1023 5.0341 9.29349 5.09783L11.3368 5.77893C11.7328 5.91095 12 6.46923 12 6.88672C12 7.53564 11.3751 7.81391 10.7532 7.62869L8.95452 7.09302L4 8.5086V19.3485L8.1531 18.1619C8.73443 17.9958 9.35238 18.0093 9.92594 18.2005L15.0455 19.907L20 18.4914V13C20 12.4477 20.4477 12 21 12Z" fill="#5E77FF"/>
    <path d="M21 6C21 6.2084 20.9247 6.55154 20.7282 7.03221C20.5386 7.49619 20.2662 8.01651 19.9459 8.55592C19.324 9.60308 18.5637 10.6519 18 11.3895C17.4363 10.6519 16.676 9.60308 16.0541 8.55592C15.7338 8.01651 15.4614 7.49619 15.2718 7.03221C15.0753 6.55154 15 6.2084 15 6C15 4.34315 16.3431 3 18 3C19.6569 3 21 4.34315 21 6Z" fill="white" stroke="#5E77FF" stroke-width="2"/>
    <rect x="8" y="10" width="2" height="9" rx="1" fill="#5E77FF"/>
    <rect x="14" y="14" width="2" height="7" rx="1" fill="#5E77FF"/>
</svg>
