<svg viewBox="0 0 24 24" fill="none" xmlns="http://www.w3.org/2000/svg">
    <path fill-rule="evenodd" clip-rule="evenodd" d="M4 3C4 2.44772 4.44772 2 5 2H19C19.5523 2 20 2.44772 20 3V21C20 21.5523 19.5523 22 19 22H5C4.44772 22 4 21.5523 4 21V3ZM15 4H18V20H6V4H9C9 4.55228 9.44772 5 10 5H14C14.5523 5 15 4.55228 15 4Z" fill="#B1B3BD"/>
    <path fill-rule="evenodd" clip-rule="evenodd" d="M16 10C16 8.34315 14.6569 7 13 7H10H9V8V9V11V13V14C8.44772 14 8 14.4477 8 15C8 15.5523 8.44772 16 9 16L9 17C9 17.5523 9.44772 18 10 18C10.5523 18 11 17.5523 11 17V16H13C13.5523 16 14 15.5523 14 15C14 14.4477 13.5523 14 13 14H11V13H13C14.6569 13 16 11.6569 16 10ZM11 11V9H13C13.5523 9 14 9.44772 14 10C14 10.5523 13.5523 11 13 11H11Z" fill="#A5A7B0"/>
</svg>
