<svg viewBox="0 0 24 24" fill="none" xmlns="http://www.w3.org/2000/svg">
    <path fill-rule="evenodd" clip-rule="evenodd" d="M12 10C13.1046 10 14 9.10457 14 8C14 6.89543 13.1046 6 12 6C10.8954 6 10 6.89543 10 8C10 9.10457 10.8954 10 12 10ZM12 12C14.2091 12 16 10.2091 16 8C16 5.79086 14.2091 4 12 4C9.79086 4 8 5.79086 8 8C8 10.2091 9.79086 12 12 12ZM7 18V17C7 16.4477 7.44772 16 8 16H16C16.5523 16 17 16.4477 17 17V18H7ZM19 19V17C19 15.3431 17.6569 14 16 14H8C6.34315 14 5 15.3431 5 17V19C5 19.5523 5.44772 20 6 20H18C18.5523 20 19 19.5523 19 19Z" fill="#B1B3BD"/>
</svg>
