<svg viewBox="0 0 24 24" fill="none" xmlns="http://www.w3.org/2000/svg">
    <circle cx="5" cy="18" r="3" stroke="#5E77FF" stroke-width="2"/>
    <path fill-rule="evenodd" clip-rule="evenodd" d="M9.9591 5.8593C8.99524 3.75233 6.16609 3.36596 4.67258 5.13733C4.18352 5.71737 3.99269 6.46183 4.0022 7.22046L4.00218 15.0005H6.00234L6.0022 7.22046C5.99871 6.94224 6.02226 6.63925 6.20162 6.42653C6.74934 5.77691 7.78689 5.9186 8.14038 6.69131L12.7645 18.753C13.8421 21.1776 17.0167 21.767 18.8927 19.8908C19.6017 19.1818 20 18.2202 20 17.2176L20 13.9999C20 13.4477 19.5523 12.9999 19 12.9999C18.4477 12.9999 18 13.4477 18 13.9999L18 17.2176C18 17.6898 17.8124 18.1427 17.4785 18.4766C16.5949 19.3603 15.0997 19.0827 14.5921 17.9408L14.3018 17.2876L9.9591 5.8593Z" fill="#5E77FF"/>
    <circle cx="19" cy="7" r="3" stroke="#5E77FF" stroke-width="2"/>
</svg>
