<svg viewBox="0 0 24 24" fill="none" xmlns="http://www.w3.org/2000/svg">
    <path fill-rule="evenodd" clip-rule="evenodd" d="M8.94542 4.19166C9.0497 3.51365 9.63488 3 10.3594 3H13.6406C14.3332 3 14.9558 3.48302 15.0648 4.19166L15.0661 4.19988L15.2956 5.78143C15.4958 5.88237 15.6889 5.99199 15.8762 6.10989L17.4295 5.50088L17.459 5.49132C18.0387 5.30285 18.7985 5.47202 19.1767 6.12513L20.8237 8.9058L20.8325 8.92211C21.1426 9.49327 21.0234 10.2447 20.4643 10.6809L20.455 10.6881L19.1688 11.6678C19.1748 11.7777 19.1778 11.8885 19.1778 12C19.1778 12.1119 19.1748 12.2216 19.1694 12.3289L20.442 13.3098C21.0304 13.7502 21.1452 14.5114 20.8124 15.0956L20.8082 15.1029L19.1664 17.875C18.8097 18.4903 18.0545 18.7397 17.4013 18.492L17.3905 18.4879L15.8644 17.8895C15.679 18.0059 15.486 18.1159 15.2855 18.2175L15.0579 19.7855C14.9679 20.5292 14.3143 21 13.6406 21H10.3594C9.62726 21 9.0729 20.486 8.94373 19.8561L8.93802 19.8283L8.70445 18.2186C8.50416 18.1176 8.31111 18.008 8.12383 17.8901L6.57047 18.4991L6.54104 18.5087C5.96129 18.6971 5.20151 18.528 4.82327 17.8749L3.17633 15.0942L3.16748 15.0779C2.85742 14.5067 2.97659 13.7553 3.53569 13.3191L3.54502 13.3119L4.83142 12.3321C4.82528 12.2205 4.82225 12.1093 4.82225 12C4.82225 11.8864 4.8268 11.7733 4.83462 11.6626L3.56105 10.6925C2.96999 10.2524 2.85419 9.48965 3.18761 8.90436L3.19177 8.89706L4.83362 6.12499C5.19029 5.50969 5.94549 5.26027 6.59869 5.508L6.60953 5.51211L8.13563 6.11049C8.32101 5.99407 8.51397 5.88409 8.71455 5.78251L8.94542 4.19166ZM10.8993 5L10.5846 7.1688L10.0393 7.38585C9.63225 7.54789 9.2476 7.77102 8.88599 8.03766L8.4233 8.37884L6.34875 7.5655L5.24159 9.4348L7.02755 10.7952L6.93193 11.378C6.89577 11.5984 6.87303 11.8118 6.87303 12C6.87303 12.2116 6.88993 12.4285 6.92168 12.622L7.01729 13.2048L5.23133 14.5652L6.33849 16.4345L8.41536 15.6203L8.87875 15.9646C9.24558 16.2371 9.61891 16.4509 10.0291 16.6142L10.5744 16.8312L10.8891 19H13.1007L13.4154 16.8312L13.9607 16.6142C14.3677 16.4521 14.7524 16.229 15.114 15.9623L15.5767 15.6212L17.6513 16.4345L18.76 14.5626L17.0146 13.2171L17.083 12.6609C17.1102 12.4398 17.127 12.2208 17.127 12C17.127 11.7794 17.1102 11.5724 17.0783 11.378L16.9827 10.7952L18.7687 9.4348L17.6615 7.5655L15.5846 8.37974L15.1213 8.03543C14.7544 7.76286 14.3811 7.54912 13.9709 7.38585L13.4256 7.1688L13.1109 5H10.8993Z" fill="#A5A7B0"/>
    <rect x="10" y="10" width="4" height="4" rx="2" fill="#A5A7B0"/>
</svg>
