<svg width="44" height="44" viewBox="0 0 44 40" fill="none" xmlns="http://www.w3.org/2000/svg">
    <g filter="url(#filter0_d)">
        <path fill-rule="evenodd" clip-rule="evenodd" d="M22 38C31.9411 38 40 29.9411 40 20C40 10.0589 31.9411 2 22 2C12.0589 2 4 10.0589 4 20C4 29.9411 12.0589 38 22 38Z" fill="white"/>
        <path d="M38.5 20C38.5 29.1127 31.1127 36.5 22 36.5C12.8873 36.5 5.5 29.1127 5.5 20C5.5 10.8873 12.8873 3.5 22 3.5C31.1127 3.5 38.5 10.8873 38.5 20Z" stroke="#5E77FF" stroke-width="3"/>
    </g>
    <path d="M29.8787 19.142L22.3077 12.121C22.2287 12.0425 22.1257 12.007 22.0192 12H21.9387C21.8322 12.0065 21.7292 12.042 21.6502 12.121L14.1292 19.142C13.9477 19.324 13.9587 19.629 14.1542 19.8245C14.1559 19.8262 14.1577 19.8272 14.1595 19.8283C14.161 19.8291 14.1624 19.8299 14.1637 19.831C14.2507 19.9245 14.3712 19.9835 14.5057 19.9835H15.9842V27.495C15.9842 27.642 16.0507 27.7705 16.1517 27.862C16.2392 27.9655 16.3632 28.0335 16.5057 28.0335H20.5002C20.6372 28.0335 20.7592 27.9715 20.8462 27.8745C20.9582 27.783 21.0342 27.65 21.0342 27.494V27.348C21.0333 27.3428 21.0319 27.3379 21.0305 27.3329C21.0281 27.3244 21.0257 27.316 21.0257 27.3065V22.244C21.0257 22.106 21.1377 21.994 21.2757 21.994H22.7342C22.8722 21.994 22.9842 22.106 22.9842 22.244V27.3065C22.9842 27.313 22.9825 27.3189 22.9807 27.3249C22.9795 27.329 22.9783 27.3332 22.9777 27.3375V27.494C22.9777 27.65 23.0537 27.783 23.1657 27.8745C23.2527 27.9715 23.3747 28.0335 23.5117 28.0335H27.5062C27.6487 28.0335 27.7727 27.9655 27.8602 27.862C27.9617 27.7705 28.0277 27.642 28.0277 27.495V19.9835H29.5062C29.6427 19.9835 29.7642 19.922 29.8512 19.8255L29.8532 19.824C30.0487 19.6295 30.0597 19.324 29.8787 19.142Z" fill="#5E77FF"/>
    <path d="M29.8787 19.142L22.3077 12.121C22.2287 12.0425 22.1257 12.007 22.0192 12H21.9387C21.8322 12.0065 21.7292 12.042 21.6502 12.121L14.1292 19.142C13.9477 19.324 13.9587 19.629 14.1542 19.8245C14.1559 19.8262 14.1577 19.8272 14.1595 19.8283C14.161 19.8291 14.1624 19.8299 14.1637 19.831C14.2507 19.9245 14.3712 19.9835 14.5057 19.9835H15.9842V27.495C15.9842 27.642 16.0507 27.7705 16.1517 27.862C16.2392 27.9655 16.3632 28.0335 16.5057 28.0335H20.5002C20.6372 28.0335 20.7592 27.9715 20.8462 27.8745C20.9582 27.783 21.0342 27.65 21.0342 27.494V27.348C21.0333 27.3428 21.0319 27.3379 21.0305 27.3329C21.0281 27.3244 21.0257 27.316 21.0257 27.3065V22.244C21.0257 22.106 21.1377 21.994 21.2757 21.994H22.7342C22.8722 21.994 22.9842 22.106 22.9842 22.244V27.3065C22.9842 27.313 22.9825 27.3189 22.9807 27.3249C22.9795 27.329 22.9783 27.3332 22.9777 27.3375V27.494C22.9777 27.65 23.0537 27.783 23.1657 27.8745C23.2527 27.9715 23.3747 28.0335 23.5117 28.0335H27.5062C27.6487 28.0335 27.7727 27.9655 27.8602 27.862C27.9617 27.7705 28.0277 27.642 28.0277 27.495V19.9835H29.5062C29.6427 19.9835 29.7642 19.922 29.8512 19.8255L29.8532 19.824C30.0487 19.6295 30.0597 19.324 29.8787 19.142Z" stroke="#5E77FF"/>
    <defs>
        <filter id="filter0_d" x="0" y="0" width="44" height="44" color-interpolation-filters="sRGB">
            <feBlend in2="BackgroundImageFix" result="effect1_dropShadow"/>
            <feBlend in="SourceGraphic" in2="effect1_dropShadow" result="shape"/>
        </filter>
    </defs>
</svg>
